#Comment line ignore any data following # character 
#Hierarchical Translation and Rotation (.htr) file 
[Header]	
#Header keywords are followed by a single value 
FileType HTR		#Single word string
DataType HTRS		#Translation followed by rotation and scale data
FileVersion 1		#integer
NumSegments 84		#integer
NumFrames 2		#integer
DataFrameRate 30		#integer, data frame rate in this file
EulerRotationOrder ZYX
CalibrationUnits mm
RotationUnits Degrees
GlobalAxisofGravity Y
BoneLengthAxis Y
ScaleFactor 1.00
[SegmentNames&Hierarchy]
#CHILD	PARENT
MASTER GLOBAL
root MASTER
chest root
L_mid_tent01 root
R_mid_tent01 root
spine01 root
Bip01_Neck chest
L_humerus chest
R_humerus chest
weapon_bone chest
Bip01_Head Bip01_Neck
eye_left_bone Bip01_Head
eye_right_bone Bip01_Head
L_forearm L_humerus
L_front_hand L_forearm
L_weapon_bone L_forearm
L_front_hand01_01 L_front_hand
L_front_hand02_01 L_front_hand
L_front_hand03_01 L_front_hand
L_front_hand01_02 L_front_hand01_01
L_front_hand02_02 L_front_hand02_01
L_front_hand03_02 L_front_hand03_01
R_forearm R_humerus
R_front_hand R_forearm
R_weapon_bone R_forearm
R_front_hand01_01 R_front_hand
R_front_hand02_01 R_front_hand
R_front_hand03_01 R_front_hand
R_front_hand01_02 R_front_hand01_01
R_front_hand02_02 R_front_hand02_01
R_front_hand03_02 R_front_hand03_01
null_rope01_connect L_mid_tent01
Rope1_Seg01 null_rope01_connect
Rope1_Seg02 Rope1_Seg01
Rope1_Seg03 Rope1_Seg02
Rope1_Seg04 Rope1_Seg03
Rope1_Seg05 Rope1_Seg04
Rope1_Seg06 Rope1_Seg05
Rope1_Seg07 Rope1_Seg06
Rope1_Seg09 Rope1_Seg07
L_mid_hand01 Rope1_Seg09
L_mid_hand02 Rope1_Seg09
L_mid_hand03 Rope1_Seg09
null_rope02_connect R_mid_tent01
Rope2_Seg01 null_rope02_connect
Rope2_Seg02 Rope2_Seg01
Rope2_Seg03 Rope2_Seg02
Rope2_Seg04 Rope2_Seg03
Rope2_Seg05 Rope2_Seg04
Rope2_Seg06 Rope2_Seg05
Rope2_Seg07 Rope2_Seg06
Rope2_Seg09 Rope2_Seg07
R_mid_hand01 Rope2_Seg09
R_mid_hand02 Rope2_Seg09
R_mid_hand03 Rope2_Seg09
spine02 spine01
spine03 spine02
pelvis spine03
null_rope03_connect pelvis
null_rope04_connect pelvis
Rope3_Seg01 null_rope03_connect
Rope3_Seg02 Rope3_Seg01
Rope3_Seg03 Rope3_Seg02
Rope3_Seg04 Rope3_Seg03
Rope3_Seg05 Rope3_Seg04
Rope3_Seg06 Rope3_Seg05
Rope3_Seg07 Rope3_Seg06
Rope3_Seg08 Rope3_Seg07
Rope3_Seg09 Rope3_Seg08
R_rear_hand01 Rope3_Seg09
R_rear_hand02 Rope3_Seg09
R_rear_hand03 Rope3_Seg09
Rope4_Seg01 null_rope04_connect
Rope4_Seg02 Rope4_Seg01
Rope4_Seg03 Rope4_Seg02
Rope4_Seg04 Rope4_Seg03
Rope4_Seg05 Rope4_Seg04
Rope4_Seg06 Rope4_Seg05
Rope4_Seg07 Rope4_Seg06
Rope4_Seg08 Rope4_Seg07
Rope4_Seg09 Rope4_Seg08
L_rear_hand01 Rope4_Seg09
L_rear_hand02 Rope4_Seg09
L_rear_hand03 Rope4_Seg09
[BasePosition]
#SegmentName Tx, Ty, Tz, Rx, Ry, Rz, BoneLength
MASTER 0.000000 0.000000 0.000000 -90.000000 0.000000 0.000000 10.000000 
root 0.000000 0.000000 0.000000 0.000000 0.000000 0.000000 10.000000 
chest 0.000000 0.000000 0.000000 0.000000 0.000000 0.000000 10.000000 
L_mid_tent01 0.000000 0.000000 0.000000 0.000000 0.000000 0.000000 10.000000 
R_mid_tent01 0.000000 0.000000 0.000000 0.000000 0.000000 0.000000 10.000000 
spine01 0.000000 0.000000 0.000000 0.000000 0.000000 0.000000 10.000000 
Bip01_Neck 0.000000 0.000000 0.000000 0.000000 0.000000 0.000000 10.000000 
L_humerus 0.000000 0.000000 0.000000 0.000000 0.000000 0.000000 10.000000 
R_humerus 0.000000 0.000000 0.000000 0.000000 0.000000 0.000000 10.000000 
weapon_bone 0.000000 0.000000 0.000000 0.000000 0.000000 0.000000 10.000000 
Bip01_Head 0.000000 0.000000 0.000000 0.000000 0.000000 0.000000 10.000000 
eye_left_bone 0.000000 0.000000 0.000000 0.000000 0.000000 0.000000 10.000000 
eye_right_bone 0.000000 0.000000 0.000000 0.000000 0.000000 0.000000 10.000000 
L_forearm 0.000000 0.000000 0.000000 0.000000 0.000000 0.000000 10.000000 
L_front_hand 0.000000 0.000000 0.000000 0.000000 0.000000 0.000000 10.000000 
L_weapon_bone 0.000000 0.000000 0.000000 0.000000 0.000000 0.000000 10.000000 
L_front_hand01_01 0.000000 0.000000 0.000000 0.000000 0.000000 0.000000 10.000000 
L_front_hand02_01 0.000000 0.000000 0.000000 0.000000 0.000000 0.000000 10.000000 
L_front_hand03_01 0.000000 0.000000 0.000000 0.000000 0.000000 0.000000 10.000000 
L_front_hand01_02 0.000000 0.000000 0.000000 0.000000 0.000000 0.000000 10.000000 
L_front_hand02_02 0.000000 0.000000 0.000000 0.000000 0.000000 0.000000 10.000000 
L_front_hand03_02 0.000000 0.000000 0.000000 0.000000 0.000000 0.000000 10.000000 
R_forearm 0.000000 0.000000 0.000000 0.000000 0.000000 0.000000 10.000000 
R_front_hand 0.000000 0.000000 0.000000 0.000000 0.000000 0.000000 10.000000 
R_weapon_bone 0.000000 0.000000 0.000000 0.000000 0.000000 0.000000 10.000000 
R_front_hand01_01 0.000000 0.000000 0.000000 0.000000 0.000000 0.000000 10.000000 
R_front_hand02_01 0.000000 0.000000 0.000000 0.000000 0.000000 0.000000 10.000000 
R_front_hand03_01 0.000000 0.000000 0.000000 0.000000 0.000000 0.000000 10.000000 
R_front_hand01_02 0.000000 0.000000 0.000000 0.000000 0.000000 0.000000 10.000000 
R_front_hand02_02 0.000000 0.000000 0.000000 0.000000 0.000000 0.000000 10.000000 
R_front_hand03_02 0.000000 0.000000 0.000000 0.000000 0.000000 0.000000 10.000000 
null_rope01_connect 0.000000 0.000000 0.000000 0.000000 0.000000 0.000000 10.000000 
Rope1_Seg01 0.000000 0.000000 0.000000 0.000000 0.000000 0.000000 10.000000 
Rope1_Seg02 0.000000 0.000000 0.000000 0.000000 0.000000 0.000000 10.000000 
Rope1_Seg03 0.000000 0.000000 0.000000 0.000000 0.000000 0.000000 10.000000 
Rope1_Seg04 0.000000 0.000000 0.000000 0.000000 0.000000 0.000000 10.000000 
Rope1_Seg05 0.000000 0.000000 0.000000 0.000000 0.000000 0.000000 10.000000 
Rope1_Seg06 0.000000 0.000000 0.000000 0.000000 0.000000 0.000000 10.000000 
Rope1_Seg07 0.000000 0.000000 0.000000 0.000000 0.000000 0.000000 10.000000 
Rope1_Seg09 0.000000 0.000000 0.000000 0.000000 0.000000 0.000000 10.000000 
L_mid_hand01 0.000000 0.000000 0.000000 0.000000 0.000000 0.000000 10.000000 
L_mid_hand02 0.000000 0.000000 0.000000 0.000000 0.000000 0.000000 10.000000 
L_mid_hand03 0.000000 0.000000 0.000000 0.000000 0.000000 0.000000 10.000000 
null_rope02_connect 0.000000 0.000000 0.000000 0.000000 0.000000 0.000000 10.000000 
Rope2_Seg01 0.000000 0.000000 0.000000 0.000000 0.000000 0.000000 10.000000 
Rope2_Seg02 0.000000 0.000000 0.000000 0.000000 0.000000 0.000000 10.000000 
Rope2_Seg03 0.000000 0.000000 0.000000 0.000000 0.000000 0.000000 10.000000 
Rope2_Seg04 0.000000 0.000000 0.000000 0.000000 0.000000 0.000000 10.000000 
Rope2_Seg05 0.000000 0.000000 0.000000 0.000000 0.000000 0.000000 10.000000 
Rope2_Seg06 0.000000 0.000000 0.000000 0.000000 0.000000 0.000000 10.000000 
Rope2_Seg07 0.000000 0.000000 0.000000 0.000000 0.000000 0.000000 10.000000 
Rope2_Seg09 0.000000 0.000000 0.000000 0.000000 0.000000 0.000000 10.000000 
R_mid_hand01 0.000000 0.000000 0.000000 0.000000 0.000000 0.000000 10.000000 
R_mid_hand02 0.000000 0.000000 0.000000 0.000000 0.000000 0.000000 10.000000 
R_mid_hand03 0.000000 0.000000 0.000000 0.000000 0.000000 0.000000 10.000000 
spine02 0.000000 0.000000 0.000000 0.000000 0.000000 0.000000 10.000000 
spine03 0.000000 0.000000 0.000000 0.000000 0.000000 0.000000 10.000000 
pelvis 0.000000 0.000000 0.000000 0.000000 0.000000 0.000000 10.000000 
null_rope03_connect 0.000000 0.000000 0.000000 0.000000 0.000000 0.000000 10.000000 
null_rope04_connect 0.000000 0.000000 0.000000 0.000000 0.000000 0.000000 10.000000 
Rope3_Seg01 0.000000 0.000000 0.000000 0.000000 0.000000 0.000000 10.000000 
Rope3_Seg02 0.000000 0.000000 0.000000 0.000000 0.000000 0.000000 10.000000 
Rope3_Seg03 0.000000 0.000000 0.000000 0.000000 0.000000 0.000000 10.000000 
Rope3_Seg04 0.000000 0.000000 0.000000 0.000000 0.000000 0.000000 10.000000 
Rope3_Seg05 0.000000 0.000000 0.000000 0.000000 0.000000 0.000000 10.000000 
Rope3_Seg06 0.000000 0.000000 0.000000 0.000000 0.000000 0.000000 10.000000 
Rope3_Seg07 0.000000 0.000000 0.000000 0.000000 0.000000 0.000000 10.000000 
Rope3_Seg08 0.000000 0.000000 0.000000 0.000000 0.000000 0.000000 10.000000 
Rope3_Seg09 0.000000 0.000000 0.000000 0.000000 0.000000 0.000000 10.000000 
R_rear_hand01 0.000000 0.000000 0.000000 0.000000 0.000000 0.000000 10.000000 
R_rear_hand02 0.000000 0.000000 0.000000 0.000000 0.000000 0.000000 10.000000 
R_rear_hand03 0.000000 0.000000 0.000000 0.000000 0.000000 0.000000 10.000000 
Rope4_Seg01 0.000000 0.000000 0.000000 0.000000 0.000000 0.000000 10.000000 
Rope4_Seg02 0.000000 0.000000 0.000000 0.000000 0.000000 0.000000 10.000000 
Rope4_Seg03 0.000000 0.000000 0.000000 0.000000 0.000000 0.000000 10.000000 
Rope4_Seg04 0.000000 0.000000 0.000000 0.000000 0.000000 0.000000 10.000000 
Rope4_Seg05 0.000000 0.000000 0.000000 0.000000 0.000000 0.000000 10.000000 
Rope4_Seg06 0.000000 0.000000 0.000000 0.000000 0.000000 0.000000 10.000000 
Rope4_Seg07 0.000000 0.000000 0.000000 0.000000 0.000000 0.000000 10.000000 
Rope4_Seg08 0.000000 0.000000 0.000000 0.000000 0.000000 0.000000 10.000000 
Rope4_Seg09 0.000000 0.000000 0.000000 0.000000 0.000000 0.000000 10.000000 
L_rear_hand01 0.000000 0.000000 0.000000 0.000000 0.000000 0.000000 10.000000 
L_rear_hand02 0.000000 0.000000 0.000000 0.000000 0.000000 0.000000 10.000000 
L_rear_hand03 0.000000 0.000000 0.000000 0.000000 0.000000 0.000000 10.000000 
#Beginning of Data. Separated by tabs
#Fr	Tx	Ty	Tz	Rx	Ry	Rz	SF
[MASTER]
24 -4247.048340 5895.068848 1494.898315 0.001660 0.001660 0.001660 7417.814941
25 -4441.370605 6143.746582 1321.641724 0.001660 0.001660 0.001660 7695.331543
[root]
24 -30.357361 -60.292355 1502.268066 -88.168785 -25.915701 -93.547539 1503.783936
25 -28.241737 -60.951534 1502.117554 -91.670547 -26.548719 -92.495300 1503.618896
[chest]
24 -84.512650 -34.090519 0.000000 1.385691 -23.312340 160.195206 91.129311
25 -84.512650 -34.090519 0.000000 -2.406510 -25.665028 163.000046 91.129311
[L_mid_tent01]
24 27.298794 22.179085 -249.919113 3.170607 31.891048 80.645866 252.382065
25 27.298782 22.179077 -249.919128 3.334668 32.977615 80.812386 252.382065
[R_mid_tent01]
24 23.228794 24.509907 226.238495 157.521179 -44.979515 91.581802 228.744751
25 23.228794 24.509907 226.238495 157.180435 -45.791908 92.243607 228.744751
[spine01]
24 -0.361383 -0.195265 0.000000 0.002025 0.001187 29.227079 0.410763
25 -0.361383 -0.195265 0.000000 0.002020 0.001195 28.809875 0.410763
[Bip01_Neck]
24 165.484543 71.581718 0.000119 176.643677 -1.657967 43.431911 180.302734
25 165.484543 71.581718 0.000119 176.643677 -1.657967 43.431911 180.302734
[L_humerus]
24 -13.983130 -135.272980 -120.471481 -6.687336 65.181908 83.210213 181.680161
25 -13.983130 -135.272980 -120.471481 -6.609587 65.461128 83.299477 181.680161
[R_humerus]
24 -13.983309 -135.273102 125.287651 26.139610 -66.023697 69.566307 184.909012
25 -13.983309 -135.273102 125.287651 26.254757 -66.324493 69.445854 184.909012
[weapon_bone]
24 235.964890 -300.705902 0.000000 0.000000 -89.951546 -128.212341 382.234833
25 235.964890 -300.705902 0.000000 0.000000 -89.951546 -128.212341 382.234833
[Bip01_Head]
24 213.333435 186.022949 7.804565 4.443141 0.096322 -43.897816 283.154724
25 213.326721 186.042465 7.559510 5.200442 6.151287 -43.834988 283.155853
[eye_left_bone]
24 -24.626970 125.451866 -64.772606 0.000000 -90.000000 -99.840431 143.318359
25 -24.626970 125.451866 -64.772606 0.000000 -90.000000 -99.840431 143.318359
[eye_right_bone]
24 -24.626970 125.451866 64.327362 0.000000 -89.965736 80.156380 143.117676
25 -24.626970 125.451866 64.327362 0.000000 -89.965736 80.156380 143.117676
[L_forearm]
24 322.776093 0.000000 -0.000119 0.000421 -0.002309 -110.667839 322.776093
25 322.776093 0.000000 -0.000119 0.000419 -0.002309 -110.579201 322.776093
[L_front_hand]
24 241.149185 -0.042021 -3.300071 -178.667953 -1.835447 -27.422350 241.171753
25 241.149185 -0.042021 -3.300071 -178.667953 -1.835447 -27.422350 241.171753
[L_weapon_bone]
24 156.183838 0.000000 0.000000 0.000014 0.000007 0.000001 156.183838
25 156.183838 0.000000 0.000000 0.000014 0.000007 0.000001 156.183838
[L_front_hand01_01]
24 86.095154 20.947098 -0.655860 -0.328329 -0.501879 70.955475 88.609184
25 86.095154 20.947098 -0.655860 -0.335131 -0.500211 71.723770 88.609184
[L_front_hand02_01]
24 86.935165 -11.437475 24.513514 147.981110 -57.745930 -53.867290 91.046425
25 86.935165 -11.437475 24.513514 149.028946 -58.148323 -55.100948 91.046425
[L_front_hand03_01]
24 86.637497 -14.123976 -20.424902 -147.939621 55.963066 -55.586479 90.126129
25 86.637497 -14.123976 -20.424902 -148.918808 56.366669 -56.764694 90.126129
[L_front_hand01_02]
24 71.020905 -0.000179 0.000030 0.000320 -0.002325 -105.671494 71.020905
25 71.020905 -0.000179 0.000030 0.000321 -0.002325 -105.725021 71.020905
[L_front_hand02_02]
24 71.020927 -0.000119 0.000060 0.000320 -0.002325 -105.671494 71.020927
25 71.020927 -0.000119 0.000060 0.000321 -0.002325 -105.725021 71.020927
[L_front_hand03_02]
24 71.020905 -0.000060 0.000060 0.000320 -0.002325 -105.671494 71.020905
25 71.020905 -0.000060 0.000060 0.000321 -0.002325 -105.725021 71.020905
[R_forearm]
24 322.776428 -0.000060 0.000030 0.201375 0.067373 -109.321373 322.776428
25 322.776428 -0.000060 0.000030 0.201431 0.067207 -109.226761 322.776428
[R_front_hand]
24 238.847015 -0.006795 2.210259 -2.635298 -10.645461 -26.312506 238.857239
25 238.847015 -0.006795 2.210259 -2.635298 -10.645461 -26.312506 238.857239
[R_weapon_bone]
24 155.664093 0.002503 -0.000030 0.003487 0.001180 -90.988930 155.664078
25 155.664093 0.002503 -0.000030 0.003487 0.001180 -90.988930 155.664078
[R_front_hand01_01]
24 87.624611 14.231146 22.918642 -150.319702 -58.611855 56.726898 91.683487
25 87.624611 14.231146 22.918642 -151.998245 -59.169323 58.688122 91.683487
[R_front_hand02_01]
24 89.356956 14.367283 -19.491137 150.553192 56.974056 58.956398 92.579636
25 89.356956 14.367283 -19.491137 152.130112 57.525925 60.828308 92.579636
[R_front_hand03_01]
24 87.286232 -22.307278 -0.143439 0.140549 -0.429018 -72.881996 90.091743
25 87.286232 -22.307278 -0.143439 0.147862 -0.431521 -74.042160 90.091743
[R_front_hand01_02]
24 71.020905 0.000060 0.000119 0.002323 -0.000334 106.381714 71.020905
25 71.020905 0.000060 0.000119 0.002323 -0.000334 106.381714 71.020905
[R_front_hand02_02]
24 71.020844 -0.000030 -0.000119 0.002323 -0.000334 106.381714 71.020836
25 71.020844 -0.000030 -0.000119 0.002323 -0.000334 106.381714 71.020836
[R_front_hand03_02]
24 71.020905 0.000000 0.000030 0.002323 -0.000334 106.381714 71.020905
25 71.020905 0.000000 0.000030 0.002323 -0.000334 106.381714 71.020905
[null_rope01_connect]
24 328.732483 0.000000 -0.000238 -133.764099 -57.261272 169.086838 328.732483
25 328.732483 0.000000 -0.000238 -136.216827 -53.584873 172.482666 328.732483
[Rope1_Seg01]
24 0.000000 0.000000 0.000000 111.791611 0.168653 174.201218 0.000000
25 0.000000 0.000000 0.000000 111.239059 -1.901933 173.346313 0.000000
[Rope1_Seg02]
24 139.999863 -0.000179 0.000000 3.135040 -10.072727 -1.744868 139.999863
25 139.999863 -0.000179 0.000000 2.994545 -10.774824 -1.756724 139.999863
[Rope1_Seg03]
24 139.999924 0.000060 -0.000060 3.402346 -16.844646 -2.968291 139.999924
25 139.999924 0.000060 -0.000060 3.033937 -17.569910 -3.356116 139.999924
[Rope1_Seg04]
24 139.999924 -0.000060 -0.000119 1.747831 -21.526150 -5.971851 139.999924
25 139.999924 -0.000060 -0.000119 0.296260 -23.979088 -4.577394 139.999924
[Rope1_Seg05]
24 139.999832 0.000119 -0.000060 -12.836769 -37.520741 12.336431 139.999832
25 139.999832 0.000119 -0.000060 -15.905290 -38.460175 11.627477 139.999832
[Rope1_Seg06]
24 139.999954 0.000119 -0.000060 -16.757292 -22.699715 5.162173 139.999954
25 139.999954 0.000119 -0.000060 -14.605350 -18.072546 1.513991 139.999954
[Rope1_Seg07]
24 139.999985 0.000060 0.000000 -9.693014 -7.943721 -1.139772 139.999985
25 139.999985 0.000060 0.000000 -8.025135 -6.646204 -1.557895 139.999985
[Rope1_Seg09]
24 121.602913 0.000119 -0.000089 -89.793175 -1.359789 0.847147 121.602913
25 121.602913 0.000119 -0.000089 -89.793175 -1.359789 0.847147 121.602913
[L_mid_hand01]
24 103.859421 1.038730 8.195221 130.544373 -67.584526 -38.866943 104.187431
25 103.859421 1.038730 8.195221 130.544373 -67.584534 -38.866943 104.187431
[L_mid_hand02]
24 105.572853 -4.139662 -10.864139 -168.923172 43.409309 -73.498886 106.211075
25 105.572853 -4.139662 -10.864139 -168.923172 43.409321 -73.498909 106.211075
[L_mid_hand03]
24 104.641464 17.579376 -3.913581 -6.012627 17.808178 74.893677 106.179977
25 104.641464 17.579376 -3.913581 -6.012628 17.808174 74.893669 106.179977
[null_rope02_connect]
24 328.732849 0.000179 -0.000119 -127.877739 42.039173 16.991804 328.732849
25 328.732849 0.000179 -0.000119 -125.914032 43.495872 19.770481 328.732849
[Rope2_Seg01]
24 0.000060 0.000065 0.000000 -36.709435 5.068930 -14.464151 0.000088
25 0.000061 0.000061 0.000000 -42.084251 9.660217 -17.783949 0.000086
[Rope2_Seg02]
24 139.999741 -0.000060 -0.000119 -8.147285 -1.881344 6.963121 139.999756
25 139.999741 -0.000060 -0.000119 -11.364753 -4.172163 9.677533 139.999756
[Rope2_Seg03]
24 140.000107 0.000030 0.000000 -14.122408 -7.988764 19.131975 140.000107
25 140.000107 0.000030 0.000000 -17.000118 -18.223522 28.356907 140.000107
[Rope2_Seg04]
24 139.999802 0.000000 -0.000060 -22.160900 -30.799181 56.471146 139.999802
25 139.999802 0.000000 -0.000060 -13.408964 -35.072361 40.134899 139.999802
[Rope2_Seg05]
24 139.999985 -0.000060 0.000119 4.822453 -19.767887 23.249653 139.999985
25 139.999985 -0.000060 0.000119 4.756753 -16.996456 18.351559 139.999985
[Rope2_Seg06]
24 139.999893 -0.000030 -0.000119 14.946935 -11.395345 16.332769 139.999893
25 139.999893 -0.000030 -0.000119 17.852819 -12.096845 17.741568 139.999893
[Rope2_Seg07]
24 139.999893 0.000060 -0.000060 21.368443 -3.729016 11.638610 139.999893
25 139.999893 0.000060 -0.000060 21.752144 -3.229957 10.942789 139.999893
[Rope2_Seg09]
24 121.338966 0.000089 -0.000060 33.793236 -1.359788 -0.847141 121.338966
25 121.338966 0.000089 -0.000060 33.793236 -1.359788 -0.847141 121.338966
[R_mid_hand01]
24 104.680779 11.144459 -10.335981 -16.212065 45.237247 70.462852 105.778534
25 104.680779 11.144459 -10.335981 -16.212059 45.237240 70.462852 105.778534
[R_mid_hand02]
24 104.070427 2.443552 8.231699 49.067383 -67.749779 39.286449 104.424065
25 104.070427 2.443552 8.231699 49.067371 -67.749794 39.286461 104.424065
[R_mid_hand03]
24 106.028137 -11.221827 -5.996406 -177.101105 15.551026 -76.585571 106.788818
25 106.028137 -11.221827 -5.996406 -177.101105 15.551026 -76.585571 106.788818
[spine02]
24 129.756927 0.001550 0.000119 0.482827 -4.031020 -14.725173 129.756927
25 129.756927 0.001550 0.000119 0.473035 -4.032232 -14.586387 129.756927
[spine03]
24 78.614326 0.081699 -4.899168 1.970259 3.795625 17.599558 78.766876
25 78.614334 0.081696 -4.899175 1.964159 3.798764 17.520529 78.766884
[pelvis]
24 169.435242 0.051022 0.000000 -0.068942 -0.178280 16.373295 169.435257
25 169.435242 0.051022 0.000000 -0.068685 -0.178378 16.208391 169.435257
[null_rope03_connect]
24 -1.257226 -2.466202 137.391083 -40.808624 -86.189926 108.326218 137.418976
25 -1.257226 -2.466202 137.391083 -95.193542 -87.017647 163.795013 137.418976
[null_rope04_connect]
24 -1.259640 -2.480268 -137.844437 -40.808624 -86.189926 108.326218 137.872513
25 -1.259640 -2.480268 -137.844437 -95.193542 -87.017647 163.795013 137.872513
[Rope3_Seg01]
24 0.000014 -0.000319 -0.000153 175.950760 -50.878849 -23.596533 0.000353
25 0.000013 -0.000336 -0.000153 176.304718 -50.357079 -23.537270 0.000369
[Rope3_Seg02]
24 139.999924 -0.000119 0.000060 3.467113 -1.090070 5.299775 139.999924
25 139.999924 -0.000119 0.000060 4.086510 -1.860213 5.247991 139.999924
[Rope3_Seg03]
24 139.999924 -0.000119 0.000119 2.965862 0.791708 8.366001 139.999924
25 139.999924 -0.000119 0.000119 3.320512 0.225087 8.193813 139.999924
[Rope3_Seg04]
24 139.999924 0.000119 0.000000 2.011375 6.097531 14.411875 139.999924
25 139.999924 0.000119 0.000000 1.898424 5.210700 12.834699 139.999924
[Rope3_Seg05]
24 139.999924 -0.000238 0.000060 6.718602 -17.446804 -14.412664 139.999924
25 139.999924 -0.000238 0.000060 7.492913 -17.431950 -12.085575 139.999924
[Rope3_Seg06]
24 139.999893 -0.000119 -0.000060 119.633881 -40.389442 -44.421230 139.999893
25 139.999893 -0.000119 -0.000060 113.810951 -43.929546 -41.028511 139.999893
[Rope3_Seg07]
24 139.999771 0.000060 -0.000119 29.339214 -6.826281 14.997269 139.999771
25 139.999771 0.000060 -0.000119 26.449329 -7.544501 16.183844 139.999771
[Rope3_Seg08]
24 139.999985 -0.000060 0.000000 5.420956 0.599873 6.316406 139.999985
25 139.999985 -0.000060 0.000000 5.339607 0.257554 6.736133 139.999985
[Rope3_Seg09]
24 90.185997 -0.000179 -0.000060 89.793228 -1.359877 -0.847183 90.185997
25 90.185997 -0.000179 -0.000060 89.793228 -1.359877 -0.847183 90.185997
[R_rear_hand01]
24 103.366196 -6.073594 -10.757982 -177.714203 24.565960 -73.910950 104.101845
25 103.366196 -6.073594 -10.757982 -177.714203 24.565960 -73.910950 104.101845
[R_rear_hand02]
24 100.509819 12.039542 -7.992327 -12.874833 36.868488 72.167213 101.543350
25 100.509819 12.039542 -7.992327 -12.874829 36.868488 72.167213 101.543350
[R_rear_hand03]
24 101.539970 5.215704 5.435467 71.484581 -71.816628 21.513813 101.819031
25 101.539970 5.215704 5.435467 71.484581 -71.816628 21.513813 101.819031
[Rope4_Seg01]
24 -0.000001 -0.000718 -0.000153 68.084412 -26.936464 -143.284760 0.000734
25 -0.000002 -0.000748 -0.000153 67.158234 -28.066565 -139.378983 0.000763
[Rope4_Seg02]
24 139.999985 0.000060 0.000119 -1.136758 -5.273361 -3.783857 139.999985
25 139.999985 0.000060 0.000119 -0.213751 -6.981976 -3.781438 139.999985
[Rope4_Seg03]
24 139.999924 0.000000 -0.000238 -1.697380 -10.043977 -6.178150 139.999924
25 139.999924 0.000000 -0.000238 1.943121 -13.569053 -5.626233 139.999924
[Rope4_Seg04]
24 139.999985 0.000000 0.000119 -129.546021 -34.247185 -37.811970 139.999985
25 139.999985 0.000000 0.000119 -160.768616 -33.303539 -20.955965 139.999985
[Rope4_Seg05]
24 139.999802 -0.000060 -0.000119 -0.336025 48.733021 14.740709 139.999802
25 139.999802 -0.000060 -0.000119 23.399612 45.849968 40.051426 139.999802
[Rope4_Seg06]
24 139.999924 0.000000 0.000060 0.048614 6.826123 2.199530 139.999924
25 139.999924 0.000000 0.000060 0.453473 9.651965 4.349123 139.999924
[Rope4_Seg07]
24 139.999802 0.000000 0.000000 0.114942 3.215870 1.038955 139.999802
25 139.999802 0.000000 0.000000 0.194176 4.095033 1.785309 139.999802
[Rope4_Seg08]
24 139.999924 0.000000 0.000119 -1.459512 1.680382 0.539222 139.999924
25 139.999924 0.000000 0.000119 -1.436664 2.060675 0.891001 139.999924
[Rope4_Seg09]
24 90.185791 0.000060 0.000060 -135.617828 2.228885 0.850567 90.185791
25 90.185791 0.000060 0.000060 -135.617828 2.228885 0.850567 90.185791
[L_rear_hand01]
24 101.696655 -8.392275 -7.654577 -12.874829 -36.868488 107.832764 102.329041
25 101.696655 -8.392275 -7.654577 -12.874834 -36.868500 107.832779 102.329041
[L_rear_hand02]
24 102.726799 -1.568258 5.773216 71.484581 71.816628 158.486160 102.900848
25 102.726799 -1.568258 5.773216 71.484627 71.816643 158.486176 102.900848
[L_rear_hand03]
24 104.552910 9.721220 -10.420293 -177.714203 -24.565960 -106.089035 105.519653
25 104.552910 9.721220 -10.420293 -177.714203 -24.565966 -106.089035 105.519653
